<svg xmlns="http://www.w3.org/2000/svg" width="40" height="32" viewBox="0 0 40 32"><path d="M36.769 5.101h-6.49l-3.885-4.08s-.02-.02-.028-.02L26.345.98C25.769.38 24.99 0 24.104 0h-8.076c-.942 0-1.779.42-2.365 1.09v.011l-3.798 4H3.231C1.442 5.101 0 6.56 0 8.42v20.21C0 30.489 1.442 32 3.231 32H36.77c1.778 0 3.23-1.511 3.23-3.37V8.42c-.001-1.858-1.453-3.319-3.231-3.319zm-16.77 21.85c-4.895 0-8.885-4.161-8.885-9.261 0-5.109 3.99-9.26 8.885-9.26 4.904 0 8.885 4.15 8.885 9.26 0 5.1-3.981 9.261-8.885 9.261zm16.163-16.5c-.74 0-1.347-.63-1.347-1.41s.605-1.41 1.347-1.41 1.347.629 1.347 1.41c0 .78-.606 1.41-1.347 1.41z"/><path d="M19.999 10.69c-3.711 0-6.711 3.131-6.711 7 0 3.86 3 7 6.711 7 3.702 0 6.712-3.131 6.712-7s-3.01-7-6.712-7z"/></svg>