<svg xmlns="http://www.w3.org/2000/svg" width="26.392" height="26.015" viewBox="0 0 26.392 26.015"><path fill-rule="evenodd" clip-rule="evenodd" fill="#A0A09F" d="M25.896 21.943l-8.963-8.949 8.951-8.938c.787-.786.628-2.219-.355-3.201-.984-.982-2.42-1.142-3.206-.356l-9.181 9.167L4.039.558C3.257-.223 1.833-.064.858.912c-.977.977-1.135 2.401-.354 3.182l8.881 8.884-8.893 8.896c-.779.779-.616 2.207.364 3.189.981.98 2.409 1.145 3.188.363l9.081-9.083 9.188 9.175c.786.784 2.225.62 3.214-.367.99-.986 1.155-2.423.369-3.208z"/></svg>