<svg xmlns="http://www.w3.org/2000/svg" width="20" height="17.209" viewBox="246 247.395 20 17.209"><path fill="#323232" d="M256.154 247.397c-5.522-.109-10.068 3.294-10.153 7.6-.029 1.498.484 2.907 1.399 4.113 1.573 2.021-.144 5.494-.144 5.494l5.068-2.183c1.092.345 2.279.546 3.522.57 5.522.108 10.068-3.294 10.153-7.6.085-4.306-4.323-7.885-9.845-7.994m-4.429 9.036a1.232 1.232 0 1 1 0-2.463 1.232 1.232 0 0 1 0 2.463m4.106 0a1.231 1.231 0 1 1-.002-2.462 1.231 1.231 0 0 1 .002 2.462m4.106 0a1.232 1.232 0 1 1 .001-2.463 1.232 1.232 0 0 1-.001 2.463"/></svg>