<svg xmlns="http://www.w3.org/2000/svg" width="12" height="15.139" viewBox="63.5 61.931 12 15.139"><path d="M75.197 64.264v-.036c0-1.269-.767-2.298-1.712-2.298h-7.972c-.946 0-1.712 1.029-1.712 2.298v.036h11.396zm.061 1.959a1.002 1.002 0 0 0-.764-.353h-9.99a1.004 1.004 0 0 0-.993 1.163l1.452 9.188c.077.489.498.849.993.849h7.084c.495 0 .916-.359.993-.849l1.452-9.188a.998.998 0 0 0-.227-.81zm-8.577 9.48a.575.575 0 0 1-.622-.522l-.601-6.867a.575.575 0 0 1 1.144-.1l.601 6.867a.573.573 0 0 1-.522.622zm3.392-.571a.575.575 0 0 1-1.149 0v-6.894a.575.575 0 0 1 1.149 0v6.894zm2.792.049a.572.572 0 0 1-.571.524c-.016 0-.033 0-.051-.002a.573.573 0 0 1-.521-.622l.601-6.867a.57.57 0 0 1 .622-.522c.316.027.55.306.521.622l-.601 6.867z"/></svg>