<svg xmlns="http://www.w3.org/2000/svg" width="15" height="13" viewBox="61.999 64.539 15 13"><path d="M69.5 69.851l6.37-5.287a.997.997 0 0 0-.211-.025H63.341a.999.999 0 0 0-.212.025l6.371 5.287z"/><path d="M69.9 71.896c-.009.008-.019.012-.027.02-.009.006-.019.012-.028.02a.614.614 0 0 1-.155.079c-.005.003-.011.003-.016.006a.621.621 0 0 1-.175.028h-.001a.66.66 0 0 1-.175-.028c-.005-.003-.011-.003-.017-.006a.643.643 0 0 1-.182-.099c-.009-.008-.018-.012-.027-.02l-7.078-5.876c-.013.1-.021.201-.021.306v9.429c0 .985.601 1.785 1.341 1.785h12.318c.74 0 1.341-.8 1.341-1.785v-9.429a2.37 2.37 0 0 0-.021-.306L69.9 71.896z"/></svg>