<svg xmlns="http://www.w3.org/2000/svg" width="39.985" height="40.001" viewBox="0 0 39.985 40.001"><path fill-rule="evenodd" clip-rule="evenodd" fill="#FFF" d="M39.376 36.437l-8.815-8.858a2.05 2.05 0 0 0-.904-.524 16.67 16.67 0 0 0 3.59-10.35C33.247 7.479 25.805 0 16.623 0 7.442 0 0 7.479 0 16.705 0 25.931 7.442 33.41 16.623 33.41c3.979 0 7.627-1.408 10.489-3.75.096.318.259.62.509.871l8.816 8.859c.812.815 2.127.815 2.938 0s.813-2.138.001-2.953zm-22.877-6.435C9.043 30.002 3 23.958 3 16.501S9.043 3 16.499 3s13.499 6.044 13.499 13.501c-.001 7.457-6.044 13.501-13.499 13.501z"/><g fill="#FFF"><path d="M18.581 22.919a2.082 2.082 0 0 1-4.162 0V10.081a2.081 2.081 0 0 1 4.162 0v12.838z"/><path d="M22.92 14.419a2.082 2.082 0 0 1 0 4.163H10.082a2.082 2.082 0 0 1 0-4.164H22.92z"/></g></svg>