<svg xmlns="http://www.w3.org/2000/svg" width="14.895" height="15" viewBox="0 0 14.895 15"><g fill-rule="evenodd" clip-rule="evenodd"><path d="M13.16 7.322a5.855 5.855 0 0 0-.399-1.833 5.55 5.55 0 0 0-1.688-2.331c-.399-.326-.509-.675-.36-1.071.196-.525.814-.754 1.264-.421.379.281.728.612 1.048.959a6.882 6.882 0 0 1 1.544 2.734 7.46 7.46 0 0 1 .295 2.846 7.382 7.382 0 0 1-1.625 4.028c-.704.876-1.562 1.583-2.602 2.032-.528.228-1.076.438-1.636.561-.725.159-1.467.223-2.219.132-.735-.088-1.445-.24-2.131-.518-1.431-.581-2.558-1.525-3.416-2.803a6.943 6.943 0 0 1-.972-2.146C.056 8.673-.07 7.832.043 6.978c.06-.449.098-.907.212-1.343.17-.647.43-1.266.772-1.845a7.865 7.865 0 0 1 1.72-2.013c.477-.402 1.084-.324 1.386.171.245.403.127.882-.313 1.226-.743.582-1.277 1.329-1.633 2.187-.426 1.026-.569 2.104-.346 3.202.381 1.873 1.419 3.26 3.138 4.116a5.294 5.294 0 0 0 2.668.574c1.684-.09 3.089-.762 4.188-2.063.369-.438.667-.917.883-1.438.292-.708.45-1.452.442-2.43z"/><path d="M6.288 4.058c0-.952-.003-1.904 0-2.855C6.291.516 6.807-.002 7.478 0c.617.002 1.129.523 1.141 1.173.008.424.001.849.001 1.273 0 1.485.001 2.971-.001 4.457 0 .501-.21.89-.665 1.115-.616.305-1.383-.008-1.588-.672a1.942 1.942 0 0 1-.073-.548c-.008-.913-.004-1.826-.005-2.74z"/></g></svg>