<svg xmlns="http://www.w3.org/2000/svg" width="15" height="17" viewBox="62 59.103 15 17"><path d="M76.039 66.476c.068-.361.107-.732.107-1.112 0-3.452-2.981-6.261-6.646-6.261s-6.646 2.809-6.646 6.261c0 .38.038.751.107 1.112-.577.337-.961.926-.961 1.6v6.129c0 1.048.929 1.897 2.075 1.897h10.85c1.146 0 2.074-.85 2.074-1.897H77v-6.129c0-.674-.383-1.263-.961-1.6zm-5.623 5.352v1.332c0 .463-.41.838-.916.838s-.916-.375-.916-.838v-1.333c-.587-.297-.986-.867-.986-1.524 0-.961.851-1.74 1.902-1.74s1.902.779 1.902 1.74c0 .657-.398 1.228-.986 1.525zm3.201-5.65h-8.234a3.844 3.844 0 0 1-.086-.814c0-2.22 1.885-4.027 4.204-4.027s4.204 1.806 4.204 4.027a3.91 3.91 0 0 1-.088.814z"/></svg>