<svg xmlns="http://www.w3.org/2000/svg" width="14.994" height="14.988" viewBox="0 0 14.994 14.988"><path fill-rule="evenodd" clip-rule="evenodd" fill="#323232" d="M14.766 13.653l-3.306-3.319a.748.748 0 0 0-.345-.188 6.242 6.242 0 0 0 1.353-3.886C12.468 2.803 9.677 0 6.233 0 2.791 0 0 2.803 0 6.259c0 3.458 2.791 6.259 6.233 6.259a6.192 6.192 0 0 0 3.939-1.409c.036.12.091.235.186.33l3.306 3.32a.776.776 0 0 0 1.102 0 .785.785 0 0 0 0-1.106zm-8.579-2.411a5.06 5.06 0 0 1-5.062-5.059 5.06 5.06 0 0 1 5.062-5.059 5.061 5.061 0 0 1 5.063 5.059 5.062 5.062 0 0 1-5.063 5.059z"/></svg>