<svg xmlns="http://www.w3.org/2000/svg" width="20" height="20" viewBox="0 0 20 20"><path fill="#FEFEFE" d="M15 0H5a5 5 0 0 0-5 5v10a5 5 0 0 0 5 5h10a5 5 0 0 0 5-5V5a5 5 0 0 0-5-5zm1.366 6.375s-.144.575-.719 1.003c-.575.43-.719.577-.719.577s.719 2.726-2.008 5.161c-2.721 2.436-6.593 1.574-6.878 1.433-.286-.144-1.29-.72-1.29-.72s1.575-.285 2.294-.575c.718-.285 1.003-.575 1.003-.575s-1.146-.144-1.574-.429c-.429-.285-.719-1.146-.719-1.146h1.146s-.86-.429-1.289-1.005c-.426-.575-.426-1.43-.426-1.43l.718.142s-.861-.861-.718-2.008c.143-1.146.286-1.289.286-1.289S6.476 7.521 8.34 7.808c1.866.285 2.008.285 2.008.285-.605-4.021 4.482-2.986 4.159-2.009 0 0 1.146-.574 1.288-.86.143-.285-.285 1.289-.285 1.289l.861-.143-.005.005z"/></svg>