<svg xmlns="http://www.w3.org/2000/svg" width="20" height="20" viewBox="0 0 20 20"><g fill="#FEFEFE"><path d="M10.048 8.936c.174-.01.347-.056.532-.143a.797.797 0 0 0 .413-.389c.078-.163.113-.357.113-.578h.01c0-.158-.041-.327-.123-.496s-.209-.292-.389-.369a1.544 1.544 0 0 0-.588-.117 44.585 44.585 0 0 0-1.012-.011H8.83v2.118h.317c.43 0 .726-.005.901-.015zm.95 1.841c-.152-.062-.363-.092-.628-.098-.266-.005-.625-.01-1.074-.01h-.461v2.501h.134c.653 0 1.104-.006 1.354-.015.251-.011.506-.067.768-.18.225-.097.394-.24.502-.435.106-.188.158-.404.158-.645 0-.312-.062-.548-.19-.727a1.133 1.133 0 0 0-.563-.391z"/><path d="M15 0H5a5 5 0 0 0-5 5v10a5 5 0 0 0 5 5h10a5 5 0 0 0 5-5V5a5 5 0 0 0-5-5zm-.947 13.247a2.682 2.682 0 0 1-.758.932 3.6 3.6 0 0 1-1.237.63c-.45.128-1.023.188-1.719.188H6.334V5.003h3.534c.736 0 1.294.025 1.668.087.379.056.736.173 1.068.353.357.194.624.45.804.772.179.322.266.696.266 1.115 0 .485-.123.92-.368 1.299-.24.379-.584.66-1.013.839v.057c.619.132 1.11.394 1.479.793.373.398.558.941.558 1.621h.005c-.001.495-.093.93-.282 1.308z"/></g></svg>