<svg xmlns="http://www.w3.org/2000/svg" width="20" height="20" viewBox="0 0 20 20"><g fill="#FEFEFE"><path d="M8.216 5.153c-2.128.395-.955 4.478 1.107 3.998 2.138-.495.769-4.346-1.107-3.998zm1.521 6.47c-.223-.157-.565-.096-.93-.065h.005c-1.243.101-2.486.454-2.497 1.738-.015 1.526 2.922 2.148 4.241 1.314.363-.233.804-.662.712-1.37-.085-.652-1.015-1.254-1.531-1.617z"/><path d="M15 0H5a5 5 0 0 0-5 5v10a5 5 0 0 0 5 5h10a5 5 0 0 0 5-5V5a5 5 0 0 0-5-5zm-2.897 13.746c-1.142 2.37-5.695 2.345-6.833.783-.298-.415-.444-.971-.237-1.557.516-1.472 2.577-1.805 4.023-1.865-.03-.086-.157-.207-.223-.313-.375-.605-.196-.821-.084-1.213-3.605.17-3.368-2.952-2.459-3.928.314-.338.576-.54 1.117-.753.466-.187.996-.288 1.542-.328.414-.03 3.447-.061 3.71-.005-.086.04-.269.172-.369.232-.521.323-.445.384-.874.379-.192-.005-.42-.015-.606.005.753.46 1.232 1.779.809 2.744-.455 1.037-2.042 1.436-1.446 2.255.358.496 2.916 1.516 1.93 3.564zm4.478-3.654h-1.738l-.006 1.643h-.576l-.02-1.648h-1.784l.005-.565h1.794v-1.66l.602.005c-.056.238-.03 1.37-.015 1.658h1.738v.567z"/></g></svg>