<svg xmlns="http://www.w3.org/2000/svg" width="26.703" height="20.953" viewBox="0 0 26.703 20.953"><path fill-rule="evenodd" clip-rule="evenodd" fill="#FFF" d="M26.703 2.533a2.532 2.532 0 0 1-2.533 2.532H2.532a2.533 2.533 0 0 1 0-5.065H24.17a2.533 2.533 0 0 1 2.533 2.533z"/><path fill-rule="evenodd" clip-rule="evenodd" fill="#FFF" d="M25.961 16.629L15.195 5.864c-.018-.019-.029-.04-.048-.059a2.524 2.524 0 0 0-1.796-.74 2.525 2.525 0 0 0-1.796.74c-.019.019-.03.04-.048.059L.742 16.629a2.533 2.533 0 0 0 3.582 3.582l9.027-9.028 9.027 9.028a2.532 2.532 0 1 0 3.583-3.582z"/></svg>